Coordinates
version=1
nRows=19
nColumns=36
inDegrees=yes

Units are S.I. units (second, meters, Newtons, ...)
If the header above contains a line with 'inDegrees', this indicates whether rotational values are in degrees (yes) or radians (no).

endheader
time	pelvis_tilt	pelvis_list	pelvis_rotation	pelvis_tx	pelvis_ty	pelvis_tz	hip_flexion_r	hip_adduction_r	hip_rotation_r	knee_angle_r	knee_angle_r_beta	ankle_angle_r	subtalar_angle_r	mtp_angle_r	hip_flexion_l	hip_adduction_l	hip_rotation_l	knee_angle_l	knee_angle_l_beta	ankle_angle_l	subtalar_angle_l	mtp_angle_l	lumbar_extension	lumbar_bending	lumbar_rotation	arm_flex_r	arm_add_r	arm_rot_r	elbow_flex_r	pro_sup_r	arm_flex_l	arm_add_l	arm_rot_l	elbow_flex_l	pro_sup_l
      5.88333330	    -34.86646149	     -2.77509282	      5.44006872	      0.76988421	      0.67136721	      0.23798915	     88.23114861	    -20.45741118	     -3.45373647	     82.39353807	      1.43803852	     32.46221365	      1.62230865	     -7.49999987	     87.65811673	    -10.36282883	      0.50008440	     80.26204209	      1.40083690	     31.88054637	     -4.53265623	     -7.49999987	    -17.59514464	      3.96367479	      3.17280353	     82.19269353	     -8.63702665	     80.70748138	    121.44359738	     87.66314595	     95.29036908	      6.80614815	     76.16050793	    111.88851230	     96.10313481
      5.90000000	    -35.46184171	     -2.83818885	      5.46073272	      0.77316477	      0.66297626	      0.23601165	     90.40577768	    -20.64889051	     -3.01055636	     84.25939672	      1.47060390	     32.74802218	      1.32417628	     -7.49999987	     89.77751434	    -10.39326063	      0.76030507	     82.02493263	      1.43160514	     31.87032061	     -5.03465986	     -7.49999987	    -17.99093016	      4.20105824	      3.67924612	     83.65705813	     -9.17649468	     81.67886499	    121.17868796	     87.48729653	     95.93569883	      7.40942461	     76.91649448	    111.90628914	     96.81525955
      5.91666670	    -35.98581740	     -2.87098004	      5.55152359	      0.77429488	      0.65464915	      0.23677422	     92.37236051	    -20.87870358	     -2.54669078	     86.05288416	      1.50190616	     33.01600526	      1.13808747	     -7.49999987	     91.66123609	    -10.39692396	      0.91812055	     83.64087298	      1.45980862	     31.90849858	     -5.32036410	     -7.49999987	    -18.46004958	      4.41482840	      4.31556607	     85.27184690	     -9.68424231	     84.76885301	    122.03901409	     87.34817795	     95.84280174	      7.86443389	     77.48527522	    111.44093016	     97.31908496
      5.93333330	    -36.31737291	     -2.93223492	      5.58789619	      0.78182477	      0.64574723	      0.23114929	     93.87968714	    -21.13740383	     -2.24565141	     87.65146251	      1.52980661	     33.39248298	      0.83783039	     -7.49999987	     93.10576130	    -10.33319472	      1.19953528	     85.16446467	      1.48640031	     32.16373489	     -5.51929157	     -7.49999987	    -18.88285125	      4.81424084	      4.76120787	     85.27959281	    -10.33421457	     86.81509536	    122.23922602	     87.12176227	     94.36805857	      8.35586537	     77.41115860	    111.36448689	     98.10635985
      5.95000000	    -36.63986100	     -2.86861958	      5.69911076	      0.77703209	      0.63159029	      0.23380460	     95.66104318	    -21.43627879	     -1.61725254	     89.55755199	      1.56307415	     33.85209258	      0.66340375	     -7.49999987	     94.67662129	    -10.27606897	      1.30600802	     86.92568751	      1.51713945	     32.53172835	     -5.46686860	     -7.49999987	    -19.16096990	      4.90317323	      4.84560411	     85.76127642	     -9.97895112	     87.63412453	    123.15382832	     85.70927347	     94.57341933	      8.62608311	     77.14746701	    111.76004767	     97.05147870
      5.96666670	    -36.98683068	     -2.94994865	      5.78235277	      0.76421685	      0.62030925	      0.23971715	     97.61926921	    -21.55187736	     -1.08318402	     91.52115232	      1.59734544	     34.15872027	      0.28791694	     -7.49999987	     96.61489622	    -10.30636660	      1.56816617	     88.77428096	      1.54940349	     32.67268656	     -5.65700923	     -7.49999987	    -19.52694735	      5.14199040	      5.19146498	     87.44271057	     -9.93488981	     87.13191624	    123.21181251	     85.55251137	     95.77189007	      8.21324065	     76.64304683	    111.45084197	     97.18271342
      5.98333330	    -37.52844515	     -2.97914188	      5.79335731	      0.76479096	      0.61128008	      0.23974164	     99.82249103	    -21.54357978	     -0.51164900	     93.40070287	      1.63014979	     34.23513881	     -0.17650261	     -7.49999987	     98.73140472	    -10.41602408	      1.77977762	     90.54093675	      1.58023745	     32.69392851	     -5.78583104	     -7.49999987	    -19.86333831	      5.28363666	      5.24657225	     88.82748713	     -9.43286088	     88.23198053	    122.49511075	     77.71292495	     96.31587543	      7.66922384	     76.11893540	    111.69338011	    102.88782525
      6.00000000	    -37.96661092	     -3.08485184	      5.89031013	      0.75229269	      0.59645114	      0.24435046	    102.12570674	    -21.52878388	      0.06571624	     95.44947113	      1.66590754	     34.51839603	     -0.31035038	     -7.49999987	    101.04806466	    -10.53821635	      2.01991707	     92.43282373	      1.61325711	     32.55004053	     -5.84488018	     -7.49999987	    -19.97734383	      5.29217433	      5.43882661	     90.70920337	     -9.42717982	     87.23742434	    123.00422842	     78.01874883	     97.74403608	      7.65020173	     75.28474258	    112.08749841	    103.99566368
      6.01666670	    -38.20271755	     -3.10375422	      5.89785493	      0.74741852	      0.57747072	      0.24780228	    104.57485227	    -21.35191982	      0.76054402	     97.74102652	      1.70590273	     34.35383084	     -1.15764717	     -7.49999987	    103.40058841	    -10.78347199	      2.24199344	     94.50959015	      1.64950352	     32.02502118	     -6.59426669	     -7.49999987	    -20.10278447	      5.02386990	      5.12197145	     92.16859424	     -8.59564543	     87.95127495	    122.63772018	     71.00620116	     99.27082302	      7.13767087	     75.70340949	    112.41048758	     98.62195950
      6.03333330	    -38.60375030	     -3.20504046	      5.89099308	      0.74554977	      0.57123945	      0.24903185	    106.98503314	    -21.17516237	      1.25196093	     99.77314613	      1.74136991	     34.30685960	     -1.73618195	     -7.49999987	    105.84281033	    -10.98643566	      2.53682835	     96.34980751	      1.68162137	     31.62251789	     -7.00777529	     -7.49999987	    -20.24478683	      4.82644086	      5.31384360	     92.50701101	     -9.12957594	     88.34707022	    121.49790414	     70.97687218	     99.84400690	      7.07296637	     76.73441774	    111.32189377	     98.17110004
      6.05000000	    -39.04974214	     -3.29772412	      5.91057852	      0.73127725	      0.56613600	      0.25157145	    109.16846992	    -20.96626436	      1.64083395	    101.28688653	      1.76778966	     33.92532163	     -2.43376371	     -7.49999987	    108.10569926	    -11.11694689	      2.74417095	     97.76096569	      1.70625073	     30.93447746	     -7.40944379	     -7.49999987	    -20.82991452	      4.57047509	      5.47314946	     93.12613036	    -10.30272893	     87.90869143	    119.58281233	     70.64903145	    101.25475726	      7.18577019	     77.55208185	    109.66620734	     98.25883894
      6.06666670	    -39.61346665	     -3.40913015	      5.99275937	      0.73053665	      0.56306845	      0.25175855	    111.04220047	    -20.87230105	      1.82065313	    102.27222553	      1.78498707	     33.47588903	     -3.01407044	     -7.49999987	    110.10425683	    -11.11604941	      2.84352556	     98.68716080	      1.72241589	     30.14935888	     -7.81985569	     -7.49999987	    -21.37065474	      4.37235419	      5.97490998	     93.76585049	    -11.43008010	     88.98978875	    118.84483489	     70.24700467	    102.04833095	      7.74921326	     78.99277527	    107.18976610	     98.21217160
      6.08333330	    -40.00714611	     -3.60664844	      6.04274049	      0.72757718	      0.55202317	      0.25531247	    112.55575143	    -20.73249802	      1.87879452	    103.15960226	      1.80047471	     32.99004760	     -3.54355724	     -7.49999987	    111.81526984	    -11.13329018	      3.09054052	     99.50246197	      1.73664558	     29.31822834	     -8.20407860	     -7.49999987	    -22.06917059	      4.16859495	      6.63118808	     94.98472626	    -11.78730658	     89.05186614	    120.38856270	     69.45392952	    103.13186839	      8.62219678	     78.87852329	    107.47307320	     96.54992034
      6.10000000	    -40.31985843	     -3.86598244	      6.16914417	      0.72773400	      0.53978195	      0.25075012	    113.93728250	    -20.77755438	      1.90315851	    104.09040243	      1.81672024	     32.73724260	     -3.93762006	     -7.49999987	    113.38802881	    -10.99220561	      3.35991272	    100.30268878	      1.75061217	     28.54121040	     -8.65764839	     -7.49999987	    -22.34482735	      4.14698000	      6.51951812	     95.75445045	    -12.39398353	     89.42643510	    122.45594749	     68.32465498	    104.16489190	      9.78397814	     79.30179156	    106.63700604	     94.94335523
      6.11666670	    -40.70217815	     -3.96237117	      6.30080730	      0.71470682	      0.53122843	      0.24800929	    115.44965456	    -20.80330247	      2.12194330	    104.91714393	      1.83114960	     32.48820258	     -4.16818790	     -7.49999987	    114.90403335	    -10.80665919	      3.42967892	    100.98623538	      1.76254231	     27.91291274	     -8.85352529	     -7.49999987	    -23.01792091	      4.25082782	      6.64648232	     97.14520614	    -13.50985827	     89.58188038	    121.59839676	     68.13555333	    105.01178504	     10.49343285	     78.87946653	    105.56798944	     94.88574374
      6.13333330	    -40.72027579	     -4.10752432	      6.40939872	      0.71119025	      0.51803307	      0.24678471	    116.72184017	    -20.92229293	      2.21765835	    105.94965779	      1.84917037	     32.24673281	     -4.52656851	     -7.49999987	    116.24552919	    -10.56920827	      3.60078989	    101.86088616	      1.77780784	     26.94867301	     -9.66697069	     -7.49999987	    -23.70277268	      4.16723097	      7.51276925	     98.84826635	    -15.21904286	     90.91017140	    123.46389201	     61.54191668	    106.36588392	     12.09706923	     79.01670718	    103.28796909	     92.45942708
      6.15000000	    -40.62080270	     -4.21539790	      6.59094204	      0.70428604	      0.50923142	      0.24787572	    117.95520722	    -21.05294306	      2.41861177	    106.96721025	      1.86693001	     32.01344244	     -4.70615929	     -7.49999987	    117.46278465	    -10.25565942	      3.71182159	    102.69077185	      1.79229208	     26.21189182	    -10.12806517	     -7.49999987	    -24.40130902	      4.38907557	      7.47285803	     99.63940278	    -15.63624693	     91.88528187	    122.29133895	     61.45296576	    107.64026108	     11.93674752	     79.48747897	    102.16255565	     90.85652080
      6.16666670	    -40.06459321	     -4.31871404	      6.76136392	      0.69816001	      0.49764668	      0.25072789	    118.81154963	    -21.11878123	      2.65240490	    108.07456540	      1.88625700	     31.78457303	     -4.72355199	     -7.49999987	    118.33163655	     -9.98669088	      3.91449142	    103.64562688	      1.80895744	     25.39860232	    -10.58485255	     -7.49999987	    -25.82856843	      4.51073637	      8.15401379	    102.32502204	    -15.87245557	     93.74789594	    122.68883925	     61.22133621	    109.74613698	     12.53587109	     79.60700775	    101.90324924	     88.52068499
      6.18333330	    -39.66050117	     -4.44971089	      6.90282972	      0.72241308	      0.50579889	      0.24562583	    119.19853798	    -21.33775856	      2.67109541	    108.81208213	      1.89912910	     31.83325052	     -4.68334996	     -7.49999987	    118.82679907	     -9.69366600	      4.09198861	    104.32026860	      1.82073216	     24.91585781	    -10.81389331	     -7.49999987	    -27.02821552	      4.94680927	      8.68252564	    101.47402148	    -16.13550302	     96.69962572	    121.23160427	     60.94381135	    107.97367493	     12.51853141	     81.42175390	     99.32435880	     84.65797870
